<svg width="57" height="9" viewBox="0 0 57 9" fill="none" xmlns="http://www.w3.org/2000/svg">
<path d="M8.97654 3.25925C8.91762 3.07701 8.75598 2.94757 8.56475 2.93033L5.9671 2.69447L4.93992 0.290252C4.86418 0.114055 4.69169 0 4.50005 0C4.3084 0 4.13591 0.114055 4.06017 0.290664L3.03299 2.69447L0.434931 2.93033C0.244039 2.94798 0.0828104 3.07701 0.0235514 3.25925C-0.0357076 3.44149 0.0190194 3.64137 0.163425 3.76738L2.12694 5.48939L1.54794 8.03986C1.50558 8.22739 1.57836 8.42124 1.73396 8.53371C1.8176 8.59414 1.91545 8.6249 2.01412 8.6249C2.0992 8.6249 2.18359 8.60196 2.25933 8.55665L4.50005 7.21745L6.73994 8.55665C6.90385 8.65525 7.11046 8.64626 7.26572 8.53371C7.42139 8.42089 7.4941 8.22698 7.45174 8.03986L6.87274 5.48939L8.83625 3.76772C8.98066 3.64137 9.0358 3.44183 8.97654 3.25925Z" fill="#B98424"/>
<path d="M20.9765 3.25925C20.9176 3.07701 20.756 2.94757 20.5647 2.93033L17.9671 2.69447L16.9399 0.290252C16.8642 0.114055 16.6917 0 16.5 0C16.3084 0 16.1359 0.114055 16.0602 0.290664L15.033 2.69447L12.4349 2.93033C12.244 2.94798 12.0828 3.07701 12.0236 3.25925C11.9643 3.44149 12.019 3.64137 12.1634 3.76738L14.1269 5.48939L13.5479 8.03986C13.5056 8.22739 13.5784 8.42124 13.734 8.53371C13.8176 8.59414 13.9154 8.6249 14.0141 8.6249C14.0992 8.6249 14.1836 8.60196 14.2593 8.55665L16.5 7.21745L18.7399 8.55665C18.9038 8.65525 19.1105 8.64626 19.2657 8.53371C19.4214 8.42089 19.4941 8.22698 19.4517 8.03986L18.8727 5.48939L20.8363 3.76772C20.9807 3.64137 21.0358 3.44183 20.9765 3.25925Z" fill="#B98424"/>
<path d="M32.9765 3.25925C32.9176 3.07701 32.756 2.94757 32.5647 2.93033L29.9671 2.69447L28.9399 0.290252C28.8642 0.114055 28.6917 0 28.5 0C28.3084 0 28.1359 0.114055 28.0602 0.290664L27.033 2.69447L24.4349 2.93033C24.244 2.94798 24.0828 3.07701 24.0236 3.25925C23.9643 3.44149 24.019 3.64137 24.1634 3.76738L26.1269 5.48939L25.5479 8.03986C25.5056 8.22739 25.5784 8.42124 25.734 8.53371C25.8176 8.59414 25.9154 8.6249 26.0141 8.6249C26.0992 8.6249 26.1836 8.60196 26.2593 8.55665L28.5 7.21745L30.7399 8.55665C30.9038 8.65525 31.1105 8.64626 31.2657 8.53371C31.4214 8.42089 31.4941 8.22698 31.4517 8.03986L30.8727 5.48939L32.8363 3.76772C32.9807 3.64137 33.0358 3.44183 32.9765 3.25925Z" fill="#B98424"/>
<path d="M44.9765 3.25925C44.9176 3.07701 44.756 2.94757 44.5647 2.93033L41.9671 2.69447L40.9399 0.290252C40.8642 0.114055 40.6917 0 40.5 0C40.3084 0 40.1359 0.114055 40.0602 0.290664L39.033 2.69447L36.4349 2.93033C36.244 2.94798 36.0828 3.07701 36.0236 3.25925C35.9643 3.44149 36.019 3.64137 36.1634 3.76738L38.1269 5.48939L37.5479 8.03986C37.5056 8.22739 37.5784 8.42124 37.734 8.53371C37.8176 8.59414 37.9154 8.6249 38.0141 8.6249C38.0992 8.6249 38.1836 8.60196 38.2593 8.55665L40.5 7.21745L42.7399 8.55665C42.9038 8.65525 43.1105 8.64626 43.2657 8.53371C43.4214 8.42089 43.4941 8.22698 43.4517 8.03986L42.8727 5.48939L44.8363 3.76772C44.9807 3.64137 45.0358 3.44183 44.9765 3.25925Z" fill="#B98424"/>
<path d="M56.9765 3.25925C56.9176 3.07701 56.756 2.94757 56.5647 2.93033L53.9671 2.69447L52.9399 0.290252C52.8642 0.114055 52.6917 0 52.5 0C52.3084 0 52.1359 0.114055 52.0602 0.290664L51.033 2.69447L48.4349 2.93033C48.244 2.94798 48.0828 3.07701 48.0236 3.25925C47.9643 3.44149 48.019 3.64137 48.1634 3.76738L50.1269 5.48939L49.5479 8.03986C49.5056 8.22739 49.5784 8.42124 49.734 8.53371C49.8176 8.59414 49.9154 8.6249 50.0141 8.6249C50.0992 8.6249 50.1836 8.60196 50.2593 8.55665L52.5 7.21745L54.7399 8.55665C54.9038 8.65525 55.1105 8.64626 55.2657 8.53371C55.4214 8.42089 55.4941 8.22698 55.4517 8.03986L54.8727 5.48939L56.8363 3.76772C56.9807 3.64137 57.0358 3.44183 56.9765 3.25925Z" fill="#B98424"/>
</svg>
