<svg width="232" height="63" viewBox="0 0 232 63" fill="none" xmlns="http://www.w3.org/2000/svg">
<path d="M19.7277 31.3446C19.7277 28.6979 20.3549 26.5721 21.6091 24.9671C22.8633 23.3514 24.5056 22.5436 26.5357 22.5436C28.5553 22.5436 30.155 23.2345 31.3348 24.6163V15.624H34.2844V40.1136H31.574L31.4305 38.2642C30.2506 39.7097 28.6084 40.4325 26.5038 40.4325C24.5056 40.4325 22.874 39.6141 21.6091 37.9772C20.3549 36.3403 19.7277 34.2038 19.7277 31.5678V31.3446ZM22.6773 31.6794C22.6773 33.6352 23.0812 35.1658 23.8891 36.2712C24.6969 37.3766 25.8129 37.9293 27.2373 37.9293C29.108 37.9293 30.4738 37.0896 31.3348 35.4102V27.4862C30.4526 25.8599 29.0974 25.0468 27.2691 25.0468C25.8236 25.0468 24.6969 25.6048 23.8891 26.7209C23.0812 27.8369 22.6773 29.4898 22.6773 31.6794ZM54.1344 40.4325C51.796 40.4325 49.8934 39.6672 48.4265 38.1366C46.9597 36.5954 46.2263 34.5386 46.2263 31.9664V31.4243C46.2263 29.713 46.5505 28.1877 47.1989 26.8484C47.8579 25.4985 48.772 24.4462 49.9412 23.6915C51.121 22.9262 52.3965 22.5436 53.7677 22.5436C56.0105 22.5436 57.7536 23.2823 58.9973 24.7598C60.2409 26.2372 60.8627 28.3524 60.8627 31.1054V32.3331H49.1759C49.2184 34.0337 49.7127 35.4102 50.6587 36.4625C51.6153 37.5042 52.827 38.025 54.2938 38.025C55.3355 38.025 56.2177 37.8124 56.9405 37.3873C57.6633 36.9621 58.2957 36.3987 58.8378 35.6972L60.6395 37.1003C59.1939 39.3218 57.0255 40.4325 54.1344 40.4325ZM53.7677 24.9671C52.5772 24.9671 51.5781 25.4028 50.7703 26.2744C49.9625 27.1354 49.4629 28.3471 49.2716 29.9096H57.9131V29.6864C57.828 28.1877 57.4241 27.0291 56.7014 26.2107C55.9786 25.3816 55.0007 24.9671 53.7677 24.9671ZM79.3096 38.025C80.3619 38.025 81.2813 37.7061 82.0679 37.0684C82.8545 36.4306 83.2903 35.6334 83.3753 34.6768H86.1655C86.1123 35.6653 85.7722 36.606 85.1451 37.4989C84.5179 38.3917 83.6782 39.1039 82.6259 39.6353C81.5843 40.1668 80.4788 40.4325 79.3096 40.4325C76.9606 40.4325 75.0898 39.6513 73.6974 38.0888C72.3156 36.5157 71.6247 34.3686 71.6247 31.6475V31.1532C71.6247 29.4738 71.933 27.9804 72.5495 26.673C73.166 25.3656 74.0482 24.3506 75.1961 23.6278C76.3547 22.905 77.7206 22.5436 79.2937 22.5436C81.2282 22.5436 82.8332 23.1229 84.1087 24.2815C85.3948 25.4401 86.0804 26.9441 86.1655 28.7936H83.3753C83.2903 27.6775 82.8651 26.7634 82.0998 26.0512C81.3451 25.3284 80.4098 24.9671 79.2937 24.9671C77.795 24.9671 76.6311 25.5091 75.802 26.5933C74.9836 27.6669 74.5743 29.224 74.5743 31.2648V31.8229C74.5743 33.8105 74.9836 35.3411 75.802 36.4147C76.6204 37.4882 77.7897 38.025 79.3096 38.025ZM96.8 31.3286C96.8 29.6386 97.1295 28.1186 97.7885 26.7687C98.4581 25.4188 99.3828 24.3771 100.563 23.6437C101.753 22.9103 103.108 22.5436 104.628 22.5436C106.977 22.5436 108.875 23.3567 110.32 24.983C111.776 26.6093 112.505 28.7723 112.505 31.4721V31.6794C112.505 33.3588 112.18 34.8681 111.532 36.2074C110.894 37.5361 109.975 38.5724 108.774 39.3165C107.583 40.0605 106.212 40.4325 104.66 40.4325C102.322 40.4325 100.425 39.6194 98.9683 37.9931C97.5227 36.3669 96.8 34.2144 96.8 31.5359V31.3286ZM99.7655 31.6794C99.7655 33.5926 100.207 35.1286 101.089 36.2871C101.982 37.4457 103.172 38.025 104.66 38.025C106.159 38.025 107.349 37.4404 108.232 36.2712C109.114 35.0914 109.555 33.4438 109.555 31.3286C109.555 29.4366 109.103 27.906 108.2 26.7368C107.307 25.557 106.116 24.9671 104.628 24.9671C103.172 24.9671 101.998 25.5463 101.105 26.7049C100.212 27.8635 99.7655 29.5217 99.7655 31.6794ZM132.642 25.5091C132.195 25.4347 131.712 25.3975 131.191 25.3975C129.256 25.3975 127.943 26.2213 127.253 27.8688V40.1136H124.303V22.8625H127.173L127.221 24.8554C128.188 23.3142 129.559 22.5436 131.334 22.5436C131.908 22.5436 132.344 22.618 132.642 22.7668V25.5091ZM154.118 40.1136C153.948 39.7735 153.81 39.1676 153.703 38.296C152.332 39.7204 150.695 40.4325 148.793 40.4325C147.092 40.4325 145.694 39.9542 144.599 38.9976C143.515 38.0303 142.973 36.808 142.973 35.3305C142.973 33.5342 143.653 32.1418 145.014 31.1532C146.385 30.1541 148.309 29.6545 150.786 29.6545H153.655V28.2993C153.655 27.2683 153.347 26.4498 152.731 25.844C152.114 25.2275 151.205 24.9192 150.004 24.9192C148.952 24.9192 148.07 25.185 147.358 25.7164C146.646 26.2479 146.289 26.8909 146.289 27.6456H143.324C143.324 26.7846 143.627 25.9556 144.233 25.1584C144.849 24.3506 145.678 23.7128 146.72 23.2451C147.772 22.7774 148.925 22.5436 150.18 22.5436C152.167 22.5436 153.725 23.0432 154.851 24.0423C155.978 25.0308 156.563 26.3967 156.605 28.1399V36.0799C156.605 37.6636 156.807 38.9232 157.211 39.8585V40.1136H154.118ZM149.223 37.8656C150.148 37.8656 151.025 37.6264 151.854 37.1481C152.683 36.6698 153.283 36.048 153.655 35.2827V31.7432H151.344C147.73 31.7432 145.923 32.8008 145.923 34.916C145.923 35.8407 146.231 36.5635 146.847 37.0843C147.464 37.6052 148.256 37.8656 149.223 37.8656ZM177.667 25.5091C177.22 25.4347 176.737 25.3975 176.216 25.3975C174.281 25.3975 172.969 26.2213 172.278 27.8688V40.1136H169.328V22.8625H172.198L172.246 24.8554C173.213 23.3142 174.584 22.5436 176.359 22.5436C176.933 22.5436 177.369 22.618 177.667 22.7668V25.5091ZM209.204 18.6852V22.8625H212.424V25.1424H209.204V35.8407C209.204 36.5316 209.347 37.0524 209.634 37.4032C209.921 37.7433 210.41 37.9134 211.101 37.9134C211.441 37.9134 211.909 37.8496 212.504 37.7221V40.1136C211.728 40.3262 210.973 40.4325 210.24 40.4325C208.922 40.4325 207.928 40.0339 207.258 39.2367C206.589 38.4395 206.254 37.3075 206.254 35.8407V25.1424H203.113V22.8625H206.254V18.6852H209.204Z" fill="black"/>
<path d="M188.556 38.5671C188.556 38.0569 188.705 37.6317 189.003 37.2916C189.311 36.9515 189.768 36.7814 190.374 36.7814C190.98 36.7814 191.437 36.9515 191.745 37.2916C192.064 37.6317 192.223 38.0569 192.223 38.5671C192.223 39.056 192.064 39.4653 191.745 39.7948C191.437 40.1243 190.98 40.289 190.374 40.289C189.768 40.289 189.311 40.1243 189.003 39.7948C188.705 39.4653 188.556 39.056 188.556 38.5671Z" fill="#B98424"/>
<path d="M192.386 61.15L231.575 61.1581" stroke="#323233" stroke-width="1.82273"/>
<path d="M1 61.15H188.741" stroke="#323233" stroke-width="1.82273"/>
<path d="M1 1H188.741" stroke="#323233" stroke-width="1.82273"/>
<path d="M1.83594 1V60.334" stroke="#323233" stroke-width="1.82273"/>
<path d="M230.664 1V60.334" stroke="#323233" stroke-width="1.82273"/>
<path d="M192.386 1L231.575 1" stroke="#323233" stroke-width="1.82273"/>
</svg>
